# xmcd
#
# Track frame offsets:
#	150
#	12373
#	27507
#	40598
#	58138
#	69256
#	84030
#	96821
#	108035
#	122029
#	134442
#	145527
#	157301
#	170682
#
# Disc length: 2397 seconds
#
# Revision: 0
# Processed by: cddbd v1.5.2PL0 Copyright (c) Steve Scherf et al.
# Submitted via: EasyCDDAExtractor 10.0.2.1
#
DISCID=b3095b0e
DTITLE=Amber Digby - The World You're Living In
DYEAR=2013
DGENRE=Country
TTITLE0=It's a Long Way From Heaven (To The World That You're Living In)
TTITLE1=One More Thing I Wished I'd Said
TTITLE2=How Can I Unlove You
TTITLE3=She'd Already Won Your Heart
TTITLE4=Saturday Night
TTITLE5=You Leave Again
TTITLE6=The One I Can't Live Without (feat. Vince Gill)
TTITLE7=It Won't Be Long (And I'll Be Hating You)
TTITLE8=Where Will You Go
TTITLE9=My Imagination
TTITLE10=We Loved It Away (feat. Randy Lindley)
TTITLE11=If It Ain't Love (Lets Leave It Alone)
TTITLE12=You Put Me Here
TTITLE13=Little Darlin' (feat. Lloyd Green)
EXTD=
EXTT0=
EXTT1=
EXTT2=
EXTT3=
EXTT4=
EXTT5=
EXTT6=
EXTT7=
EXTT8=
EXTT9=
EXTT10=
EXTT11=
EXTT12=
EXTT13=
PLAYORDER=
